{"title":"City of Ember.2008.x264.AC3(5.1).Nordic_Sub.mkv","uid":5489056,"size":740063145,"categoryP":"video","categoryS":"movies","magnet":"?xt=urn:btih:8a09ddc1bba0fde3d2f05e25e97d16e936d62a46&amp;dn=City+of+Ember.2008.x264.AC3%285.1%29.Nordic_Sub.mkv&amp;tr=udp%3A%2F%2Ftracker.openbittorrent.com%3A80&amp;tr=udp%3A%2F%2Fopen.demonii.com%3A1337&amp;tr=udp%3A%2F%2Ftracker.coppersurfer.tk%3A6969&amp;tr=udp%3A%2F%2Fexodus.desync.com%3A6969","seeders":1,"leechers":0,"uploader":"Zen_Bud","files":-1,"time":1270890784,"description":"General\nComplete name                    : City of Ember.mkv\nFormat                           : Matroska\nFile size                        : 706 MiB\nDuration                         : 1h 30mn\nOverall bit rate                 : 1 087 Kbps\nWriting application              : HandBrake 0.9.4\n\nVideo\nID                               : 1\nFormat                           : AVC\nDuration                         : 1h 30mn\nBit rate                         : 873 Kbps\nNominal bit rate                 : 879 Kbps\nWidth                            : 720 pixels\nHeight                           : 426 pixels\nDisplay aspect ratio             : 2.40:1\nFrame rate                       : 25.000 fps\nResolution                       : 8 bits\nColorimetry                      : 4:2:0\nScan type                        : Progressive\nBits/(Pixel*Frame)               : 0.114\nStream size                      : 567 MiB (80%)\nWriting library                  : x264 core 79\n\n\nAudio\nID                               : 2\nFormat                           : AC-3\nFormat/Info                      : Audio Coding 3\nCodec ID                         : A_AC3\nDuration                         : 1h 30mn\nBit rate mode                    : Constant\nBit rate                         : 192 Kbps\nChannel(s)                       : 2 channels\nChannel positions                : Front: L R\nSampling rate                    : 48.0 KHz\nStream size                      : 125 MiB (18%)\nLanguage                         : English\n\nText #1\nLanguage                         : Swedish\n\nText #2\nLanguage                         : Norwegian\n\nText #3\nLanguage                         : Danish\n\nText #4\nLanguage                         : Finnish\n\n","torrent":{"xt":"urn:btih:8a09ddc1bba0fde3d2f05e25e97d16e936d62a46","amp;dn":"City+of+Ember.2008.x264.AC3%285.1%29.Nordic_Sub.mkv","amp;tr":["udp%3A%2F%2Ftracker.openbittorrent.com%3A80","udp%3A%2F%2Fopen.demonii.com%3A1337","udp%3A%2F%2Ftracker.coppersurfer.tk%3A6969","udp%3A%2F%2Fexodus.desync.com%3A6969"],"infoHash":"8a09ddc1bba0fde3d2f05e25e97d16e936d62a46","infoHashBuffer":{"type":"Buffer","data":[138,9,221,193,187,160,253,227,210,240,94,37,233,125,22,233,54,214,42,70]},"announce":[],"urlList":[]}}